<svg width="1057" height="572" xmlns="http://www.w3.org/2000/svg" xmlns:xlink="http://www.w3.org/1999/xlink" overflow="hidden"><defs><filter id="fx0" x="-10%" y="-10%" width="120%" height="120%" filterUnits="userSpaceOnUse" primitiveUnits="userSpaceOnUse"><feComponentTransfer color-interpolation-filters="sRGB"><feFuncR type="discrete" tableValues="1 1"/><feFuncG type="discrete" tableValues="1 1"/><feFuncB type="discrete" tableValues="1 1"/><feFuncA type="linear" slope="0.4" intercept="0"/></feComponentTransfer><feGaussianBlur stdDeviation="1.77778 1.77778"/></filter><clipPath id="clip1"><rect x="176" y="172" width="1057" height="572"/></clipPath><radialGradient cx="-0.125" cy="-0.125" r="4.02764e+06" fx="0" fy="0" gradientUnits="userSpaceOnUse" spreadMethod="pad" id="fill2" gradientTransform="matrix(0.000104987 0 0 0.000104987 443 268)"><stop offset="0" stop-color="#EE9AE5"/><stop offset="0.00675676" stop-color="#ED99E5"/><stop offset="0.0135135" stop-color="#ED99E5"/><stop offset="0.0202703" stop-color="#ED99E5"/><stop offset="0.027027" stop-color="#ED99E6"/><stop offset="0.0337838" stop-color="#ED99E6"/><stop offset="0.0405405" stop-color="#ED99E6"/><stop offset="0.0472973" stop-color="#ED99E6"/><stop offset="0.0540541" stop-color="#ED99E6"/><stop offset="0.0608108" stop-color="#ED99E7"/><stop offset="0.0675676" stop-color="#ED99E7"/><stop offset="0.0743243" stop-color="#EC99E7"/><stop offset="0.0810811" stop-color="#EC99E7"/><stop offset="0.0878378" stop-color="#EC99E8"/><stop offset="0.0945946" stop-color="#EC99E8"/><stop offset="0.101351" stop-color="#EB99E8"/><stop offset="0.108108" stop-color="#EB99E8"/><stop offset="0.114865" stop-color="#EB99E9"/><stop offset="0.121622" stop-color="#EB98E9"/><stop offset="0.128378" stop-color="#EA98E9"/><stop offset="0.135135" stop-color="#EA98E9"/><stop offset="0.141892" stop-color="#EA98E9"/><stop offset="0.148649" stop-color="#E998EA"/><stop offset="0.155405" stop-color="#E998EA"/><stop offset="0.162162" stop-color="#E998EA"/><stop offset="0.168919" stop-color="#E897EA"/><stop offset="0.175676" stop-color="#E897EB"/><stop offset="0.182432" stop-color="#E797EB"/><stop offset="0.189189" stop-color="#E797EB"/><stop offset="0.195946" stop-color="#E697EB"/><stop offset="0.202703" stop-color="#E697EB"/><stop offset="0.209459" stop-color="#E696EC"/><stop offset="0.216216" stop-color="#E596EC"/><stop offset="0.222973" stop-color="#E596EC"/><stop offset="0.22973" stop-color="#E496EC"/><stop offset="0.236486" stop-color="#E496EC"/><stop offset="0.243243" stop-color="#E395ED"/><stop offset="0.25" stop-color="#E295ED"/><stop offset="0.256757" stop-color="#E295ED"/><stop offset="0.263514" stop-color="#E195ED"/><stop offset="0.27027" stop-color="#E195ED"/><stop offset="0.277027" stop-color="#E094EE"/><stop offset="0.283784" stop-color="#DF94EE"/><stop offset="0.290541" stop-color="#DF94EE"/><stop offset="0.297297" stop-color="#DE94EE"/><stop offset="0.304054" stop-color="#DE93EE"/><stop offset="0.310811" stop-color="#DD93EF"/><stop offset="0.317568" stop-color="#DC93EF"/><stop offset="0.324324" stop-color="#DB93EF"/><stop offset="0.331081" stop-color="#DB92EF"/><stop offset="0.337838" stop-color="#DA92EF"/><stop offset="0.344595" stop-color="#D992EF"/><stop offset="0.351351" stop-color="#D991F0"/><stop offset="0.358108" stop-color="#D891F0"/><stop offset="0.364865" stop-color="#D791F0"/><stop offset="0.371622" stop-color="#D691F0"/><stop offset="0.378378" stop-color="#D590F0"/><stop offset="0.385135" stop-color="#D590F0"/><stop offset="0.391892" stop-color="#D490F1"/><stop offset="0.398649" stop-color="#D38FF1"/><stop offset="0.405405" stop-color="#D28FF1"/><stop offset="0.412162" stop-color="#D18FF1"/><stop offset="0.418919" stop-color="#D08EF1"/><stop offset="0.425676" stop-color="#CF8EF1"/><stop offset="0.432432" stop-color="#CF8EF2"/><stop offset="0.439189" stop-color="#CE8DF2"/><stop offset="0.445946" stop-color="#CD8DF2"/><stop offset="0.452703" stop-color="#CC8DF2"/><stop offset="0.459459" stop-color="#CB8CF2"/><stop offset="0.466216" stop-color="#CA8CF2"/><stop offset="0.472973" stop-color="#C98BF2"/><stop offset="0.47973" stop-color="#C88BF3"/><stop offset="0.486486" stop-color="#C78BF3"/><stop offset="0.493243" stop-color="#C68AF3"/><stop offset="0.5" stop-color="#C58AF3"/><stop offset="0.506757" stop-color="#C48AF3"/><stop offset="0.513514" stop-color="#C389F3"/><stop offset="0.52027" stop-color="#C289F3"/><stop offset="0.527027" stop-color="#C188F4"/><stop offset="0.533784" stop-color="#C088F4"/><stop offset="0.540541" stop-color="#BE88F4"/><stop offset="0.547297" stop-color="#BD87F4"/><stop offset="0.554054" stop-color="#BC87F4"/><stop offset="0.560811" stop-color="#BB86F4"/><stop offset="0.567568" stop-color="#BA86F4"/><stop offset="0.574324" stop-color="#B985F4"/><stop offset="0.581081" stop-color="#B885F5"/><stop offset="0.587838" stop-color="#B684F5"/><stop offset="0.594595" stop-color="#B584F5"/><stop offset="0.601351" stop-color="#B484F5"/><stop offset="0.608108" stop-color="#B383F5"/><stop offset="0.614865" stop-color="#B283F5"/><stop offset="0.621622" stop-color="#B082F5"/><stop offset="0.628378" stop-color="#AF82F5"/><stop offset="0.635135" stop-color="#AE81F5"/><stop offset="0.641892" stop-color="#AD81F6"/><stop offset="0.648649" stop-color="#AB80F6"/><stop offset="0.655405" stop-color="#AA80F6"/><stop offset="0.662162" stop-color="#A97FF6"/><stop offset="0.668919" stop-color="#A77FF6"/><stop offset="0.675676" stop-color="#A67EF6"/><stop offset="0.682432" stop-color="#A57EF6"/><stop offset="0.689189" stop-color="#A37DF6"/><stop offset="0.695946" stop-color="#A27DF6"/><stop offset="0.702703" stop-color="#A17CF6"/><stop offset="0.709459" stop-color="#9F7CF7"/><stop offset="0.716216" stop-color="#9E7BF7"/><stop offset="0.722973" stop-color="#9C7AF7"/><stop offset="0.72973" stop-color="#9B7AF7"/><stop offset="0.736486" stop-color="#9A79F7"/><stop offset="0.743243" stop-color="#9879F7"/><stop offset="0.75" stop-color="#9778F7"/><stop offset="0.756757" stop-color="#9578F7"/><stop offset="0.763514" stop-color="#9477F7"/><stop offset="0.77027" stop-color="#9277F7"/><stop offset="0.777027" stop-color="#9176F7"/><stop offset="0.783784" stop-color="#8F75F7"/><stop offset="0.790541" stop-color="#8E75F7"/><stop offset="0.797297" stop-color="#8C74F7"/><stop offset="0.804054" stop-color="#8B74F8"/><stop offset="0.810811" stop-color="#8973F8"/><stop offset="0.817568" stop-color="#8772F8"/><stop offset="0.824324" stop-color="#8672F8"/><stop offset="0.831081" stop-color="#8471F8"/><stop offset="0.837838" stop-color="#8371F8"/><stop offset="0.844595" stop-color="#8170F8"/><stop offset="0.851351" stop-color="#7F6FF8"/><stop offset="0.858108" stop-color="#7E6FF8"/><stop offset="0.864865" stop-color="#7C6EF8"/><stop offset="0.871622" stop-color="#7A6DF8"/><stop offset="0.878378" stop-color="#796DF8"/><stop offset="0.885135" stop-color="#776CF8"/><stop offset="0.891892" stop-color="#756CF8"/><stop offset="0.898649" stop-color="#746BF8"/><stop offset="0.905405" stop-color="#726AF8"/><stop offset="0.912162" stop-color="#706AF8"/><stop offset="0.918919" stop-color="#6E69F8"/><stop offset="0.925676" stop-color="#6D68F8"/><stop offset="0.932432" stop-color="#6B68F8"/><stop offset="0.939189" stop-color="#6967F8"/><stop offset="0.945946" stop-color="#6766F8"/><stop offset="0.952703" stop-color="#6565F8"/><stop offset="0.959459" stop-color="#6465F8"/><stop offset="0.966216" stop-color="#6264F8"/><stop offset="0.972973" stop-color="#6063F8"/><stop offset="0.97973" stop-color="#5E63F8"/><stop offset="0.986486" stop-color="#5C62F8"/><stop offset="0.993243" stop-color="#5A61F8"/><stop offset="1" stop-color="#5961F9"/></radialGradient><clipPath id="clip3"><rect x="168" y="145" width="733" height="200"/></clipPath><clipPath id="clip4"><rect x="0" y="0" width="1059" height="574"/></clipPath></defs><g clip-path="url(#clip1)" transform="translate(-176 -172)"><path d="M443 417.5C443 334.933 509.933 268 592.5 268 675.067 268 742 334.933 742 417.5 742 500.067 675.067 567 592.5 567 509.933 567 443 500.067 443 417.5Z" fill="url(#fill2)" fill-rule="evenodd"/><g clip-path="url(#clip3)" filter="url(#fx0)" transform="translate(175 171)"><g clip-path="url(#clip4)"><path d="M57.672-178.089 57.672-127.092 79.566-127.092 79.566-75.561 57.672-75.561C57.672-65.237 59.274-58.117 62.478-54.201 65.682-50.285 71.645-48.327 80.367-48.327L80.367 2.937C57.939 2.937 40.406-3.4265 27.768-16.1535 15.13-28.8805 8.811-46.903 8.811-70.221L8.811-178.089Z" fill="#FFFFFF" transform="translate(166.91 335)"/><path d="M82.236-89.178 82.236-42.453 67.284-42.453 67.284 0 14.151 0 14.151-113.208C14.151-135.102 20.114-152.101 32.04-164.205 43.966-176.309 60.787-182.361 82.503-182.361 103.329-182.361 118.726-176.843 128.694-165.807 138.662-154.771 143.646-137.861 143.646-115.077L143.646 0 90.78 0 90.78-111.606C90.78-118.37 89.9345-123.131 88.2435-125.89 86.5525-128.649 83.66-130.029 79.566-130.029 71.378-130.029 67.284-123.888 67.284-111.606L67.284-89.178ZM228.588-178.089 228.588 0 175.722 0 175.722-178.089Z" transform="translate(294.91 335)"/><path d="M63.012-178.089 63.012 0 14.151 0 14.151-178.089ZM83.675-64.881C83.675-83.393 90.3945-99.3685 103.833-112.807 117.272-126.246 133.248-132.966 151.76-132.966 170.272-132.966 186.247-126.246 199.686-112.807 213.125-99.3685 219.845-83.393 219.845-64.881 219.845-46.369 213.17-30.438 199.82-17.088 186.47-3.738 170.45 2.937 151.76 2.937 133.07 2.937 117.05-3.738 103.7-17.088 90.35-30.438 83.675-46.369 83.675-64.881ZM132.002-64.881C132.002-59.541 133.915-54.9575 137.742-51.1305 141.569-47.3035 146.242-45.39 151.76-45.39 157.278-45.39 161.95-47.3035 165.777-51.1305 169.604-54.9575 171.518-59.541 171.518-64.881 171.518-70.399 169.604-75.0715 165.777-78.8985 161.95-82.7255 157.278-84.639 151.76-84.639 146.242-84.639 141.569-82.7255 137.742-78.8985 133.915-75.0715 132.002-70.399 132.002-64.881ZM311.44-131.364 311.44-79.032C307.88-81.168 304.587-82.236 301.561-82.236 297.645-82.236 294.574-80.456 292.349-76.896 290.124-73.336 289.012-68.263 289.012-61.677L289.012 0 240.151 0 240.151-71.022C240.151-90.068 245.18-105.153 255.236-116.278 265.293-127.403 278.866-132.966 295.954-132.966 300.938-132.966 306.1-132.432 311.44-131.364Z" fill="#FFFFFF" transform="translate(580.244 335)"/></g></g><text fill="#FFFFFF" font-family="STHupo,STHupo_MSFontService,sans-serif" font-weight="400" font-size="267" transform="translate(339.082 503)">t<tspan fill="#000000" font-size="267" x="128" y="0">AI</tspan><tspan font-size="267" x="413.333" y="0">lor</tspan></text></g></svg>