<svg width="381" height="214" xmlns="http://www.w3.org/2000/svg" xmlns:xlink="http://www.w3.org/1999/xlink" overflow="hidden"><defs><filter id="fx0" x="-10%" y="-10%" width="120%" height="120%" filterUnits="userSpaceOnUse" primitiveUnits="userSpaceOnUse"><feComponentTransfer color-interpolation-filters="sRGB"><feFuncR type="discrete" tableValues="0 0"/><feFuncG type="discrete" tableValues="0 0"/><feFuncB type="discrete" tableValues="0 0"/><feFuncA type="linear" slope="0.4" intercept="0"/></feComponentTransfer><feGaussianBlur stdDeviation="1.77778 1.77778"/></filter><clipPath id="clip1"><rect x="272" y="203" width="381" height="214"/></clipPath><radialGradient cx="0" cy="0" r="1.48174e+06" fy="-1.24904e-10" gradientUnits="userSpaceOnUse" spreadMethod="pad" id="fill2" gradientTransform="matrix(0.000104987 0 0 0.000104987 365 236)"><stop offset="0" stop-color="#EE9AE5"/><stop offset="0.00675676" stop-color="#ED99E5"/><stop offset="0.0135135" stop-color="#ED99E5"/><stop offset="0.0202703" stop-color="#ED99E5"/><stop offset="0.027027" stop-color="#ED99E6"/><stop offset="0.0337838" stop-color="#ED99E6"/><stop offset="0.0405405" stop-color="#ED99E6"/><stop offset="0.0472973" stop-color="#ED99E6"/><stop offset="0.0540541" stop-color="#ED99E6"/><stop offset="0.0608108" stop-color="#ED99E7"/><stop offset="0.0675676" stop-color="#ED99E7"/><stop offset="0.0743243" stop-color="#EC99E7"/><stop offset="0.0810811" stop-color="#EC99E7"/><stop offset="0.0878378" stop-color="#EC99E8"/><stop offset="0.0945946" stop-color="#EC99E8"/><stop offset="0.101351" stop-color="#EB99E8"/><stop offset="0.108108" stop-color="#EB99E8"/><stop offset="0.114865" stop-color="#EB99E9"/><stop offset="0.121622" stop-color="#EB98E9"/><stop offset="0.128378" stop-color="#EA98E9"/><stop offset="0.135135" stop-color="#EA98E9"/><stop offset="0.141892" stop-color="#EA98E9"/><stop offset="0.148649" stop-color="#E998EA"/><stop offset="0.155405" stop-color="#E998EA"/><stop offset="0.162162" stop-color="#E998EA"/><stop offset="0.168919" stop-color="#E897EA"/><stop offset="0.175676" stop-color="#E897EB"/><stop offset="0.182432" stop-color="#E797EB"/><stop offset="0.189189" stop-color="#E797EB"/><stop offset="0.195946" stop-color="#E697EB"/><stop offset="0.202703" stop-color="#E697EB"/><stop offset="0.209459" stop-color="#E696EC"/><stop offset="0.216216" stop-color="#E596EC"/><stop offset="0.222973" stop-color="#E596EC"/><stop offset="0.22973" stop-color="#E496EC"/><stop offset="0.236486" stop-color="#E496EC"/><stop offset="0.243243" stop-color="#E395ED"/><stop offset="0.25" stop-color="#E295ED"/><stop offset="0.256757" stop-color="#E295ED"/><stop offset="0.263514" stop-color="#E195ED"/><stop offset="0.27027" stop-color="#E195ED"/><stop offset="0.277027" stop-color="#E094EE"/><stop offset="0.283784" stop-color="#DF94EE"/><stop offset="0.290541" stop-color="#DF94EE"/><stop offset="0.297297" stop-color="#DE94EE"/><stop offset="0.304054" stop-color="#DE93EE"/><stop offset="0.310811" stop-color="#DD93EF"/><stop offset="0.317568" stop-color="#DC93EF"/><stop offset="0.324324" stop-color="#DB93EF"/><stop offset="0.331081" stop-color="#DB92EF"/><stop offset="0.337838" stop-color="#DA92EF"/><stop offset="0.344595" stop-color="#D992EF"/><stop offset="0.351351" stop-color="#D991F0"/><stop offset="0.358108" stop-color="#D891F0"/><stop offset="0.364865" stop-color="#D791F0"/><stop offset="0.371622" stop-color="#D691F0"/><stop offset="0.378378" stop-color="#D590F0"/><stop offset="0.385135" stop-color="#D590F0"/><stop offset="0.391892" stop-color="#D490F1"/><stop offset="0.398649" stop-color="#D38FF1"/><stop offset="0.405405" stop-color="#D28FF1"/><stop offset="0.412162" stop-color="#D18FF1"/><stop offset="0.418919" stop-color="#D08EF1"/><stop offset="0.425676" stop-color="#CF8EF1"/><stop offset="0.432432" stop-color="#CF8EF2"/><stop offset="0.439189" stop-color="#CE8DF2"/><stop offset="0.445946" stop-color="#CD8DF2"/><stop offset="0.452703" stop-color="#CC8DF2"/><stop offset="0.459459" stop-color="#CB8CF2"/><stop offset="0.466216" stop-color="#CA8CF2"/><stop offset="0.472973" stop-color="#C98BF2"/><stop offset="0.47973" stop-color="#C88BF3"/><stop offset="0.486486" stop-color="#C78BF3"/><stop offset="0.493243" stop-color="#C68AF3"/><stop offset="0.5" stop-color="#C58AF3"/><stop offset="0.506757" stop-color="#C48AF3"/><stop offset="0.513514" stop-color="#C389F3"/><stop offset="0.52027" stop-color="#C289F3"/><stop offset="0.527027" stop-color="#C188F4"/><stop offset="0.533784" stop-color="#C088F4"/><stop offset="0.540541" stop-color="#BE88F4"/><stop offset="0.547297" stop-color="#BD87F4"/><stop offset="0.554054" stop-color="#BC87F4"/><stop offset="0.560811" stop-color="#BB86F4"/><stop offset="0.567568" stop-color="#BA86F4"/><stop offset="0.574324" stop-color="#B985F4"/><stop offset="0.581081" stop-color="#B885F5"/><stop offset="0.587838" stop-color="#B684F5"/><stop offset="0.594595" stop-color="#B584F5"/><stop offset="0.601351" stop-color="#B484F5"/><stop offset="0.608108" stop-color="#B383F5"/><stop offset="0.614865" stop-color="#B283F5"/><stop offset="0.621622" stop-color="#B082F5"/><stop offset="0.628378" stop-color="#AF82F5"/><stop offset="0.635135" stop-color="#AE81F5"/><stop offset="0.641892" stop-color="#AD81F6"/><stop offset="0.648649" stop-color="#AB80F6"/><stop offset="0.655405" stop-color="#AA80F6"/><stop offset="0.662162" stop-color="#A97FF6"/><stop offset="0.668919" stop-color="#A77FF6"/><stop offset="0.675676" stop-color="#A67EF6"/><stop offset="0.682432" stop-color="#A57EF6"/><stop offset="0.689189" stop-color="#A37DF6"/><stop offset="0.695946" stop-color="#A27DF6"/><stop offset="0.702703" stop-color="#A17CF6"/><stop offset="0.709459" stop-color="#9F7CF7"/><stop offset="0.716216" stop-color="#9E7BF7"/><stop offset="0.722973" stop-color="#9C7AF7"/><stop offset="0.72973" stop-color="#9B7AF7"/><stop offset="0.736486" stop-color="#9A79F7"/><stop offset="0.743243" stop-color="#9879F7"/><stop offset="0.75" stop-color="#9778F7"/><stop offset="0.756757" stop-color="#9578F7"/><stop offset="0.763514" stop-color="#9477F7"/><stop offset="0.77027" stop-color="#9277F7"/><stop offset="0.777027" stop-color="#9176F7"/><stop offset="0.783784" stop-color="#8F75F7"/><stop offset="0.790541" stop-color="#8E75F7"/><stop offset="0.797297" stop-color="#8C74F7"/><stop offset="0.804054" stop-color="#8B74F8"/><stop offset="0.810811" stop-color="#8973F8"/><stop offset="0.817568" stop-color="#8772F8"/><stop offset="0.824324" stop-color="#8672F8"/><stop offset="0.831081" stop-color="#8471F8"/><stop offset="0.837838" stop-color="#8371F8"/><stop offset="0.844595" stop-color="#8170F8"/><stop offset="0.851351" stop-color="#7F6FF8"/><stop offset="0.858108" stop-color="#7E6FF8"/><stop offset="0.864865" stop-color="#7C6EF8"/><stop offset="0.871622" stop-color="#7A6DF8"/><stop offset="0.878378" stop-color="#796DF8"/><stop offset="0.885135" stop-color="#776CF8"/><stop offset="0.891892" stop-color="#756CF8"/><stop offset="0.898649" stop-color="#746BF8"/><stop offset="0.905405" stop-color="#726AF8"/><stop offset="0.912162" stop-color="#706AF8"/><stop offset="0.918919" stop-color="#6E69F8"/><stop offset="0.925676" stop-color="#6D68F8"/><stop offset="0.932432" stop-color="#6B68F8"/><stop offset="0.939189" stop-color="#6967F8"/><stop offset="0.945946" stop-color="#6766F8"/><stop offset="0.952703" stop-color="#6565F8"/><stop offset="0.959459" stop-color="#6465F8"/><stop offset="0.966216" stop-color="#6264F8"/><stop offset="0.972973" stop-color="#6063F8"/><stop offset="0.97973" stop-color="#5E63F8"/><stop offset="0.986486" stop-color="#5C62F8"/><stop offset="0.993243" stop-color="#5A61F8"/><stop offset="1" stop-color="#5961F9"/></radialGradient><clipPath id="clip3"><rect x="58" y="52" width="269" height="83"/></clipPath><clipPath id="clip4"><rect x="0" y="0" width="382" height="215"/></clipPath></defs><g clip-path="url(#clip1)" transform="translate(-272 -203)"><path d="M365 291C365 260.624 389.624 236 420 236 450.376 236 475 260.624 475 291 475 321.376 450.376 346 420 346 389.624 346 365 321.376 365 291Z" fill="url(#fill2)" fill-rule="evenodd"/><g clip-path="url(#clip3)" filter="url(#fx0)" transform="translate(271 202)"><g clip-path="url(#clip4)"><path d="M20.736-64.032 20.736-45.696 28.608-45.696 28.608-27.168 20.736-27.168C20.736-23.456 21.312-20.896 22.464-19.488 23.616-18.08 25.76-17.376 28.896-17.376L28.896 1.056C20.832 1.056 14.528-1.232 9.984-5.808 5.44-10.384 3.168-16.864 3.168-25.248L3.168-64.032Z" transform="translate(64.3429 125)"/><path d="M29.568-32.064 29.568-15.264 24.192-15.264 24.192 0 5.088 0 5.088-40.704C5.088-48.576 7.232-54.688 11.52-59.04 15.808-63.392 21.856-65.568 29.664-65.568 37.152-65.568 42.688-63.584 46.272-59.616 49.856-55.648 51.648-49.568 51.648-41.376L51.648 0 32.64 0 32.64-40.128C32.64-42.56 32.336-44.272 31.728-45.264 31.12-46.256 30.08-46.752 28.608-46.752 25.664-46.752 24.192-44.544 24.192-40.128L24.192-32.064ZM82.2733-64.032 82.2733 0 63.2653 0 63.2653-64.032Z" fill="#FFFFFF" transform="translate(106.676 125)"/><path d="M22.656-64.032 22.656 0 5.088 0 5.088-64.032ZM30.0667-23.328C30.0667-29.984 32.4827-35.728 37.3147-40.56 42.1467-45.392 47.8907-47.808 54.5467-47.808 61.2027-47.808 66.9467-45.392 71.7787-40.56 76.6107-35.728 79.0267-29.984 79.0267-23.328 79.0267-16.672 76.6267-10.944 71.8267-6.144 67.0267-1.344 61.2667 1.056 54.5467 1.056 47.8267 1.056 42.0667-1.344 37.2667-6.144 32.4667-10.944 30.0667-16.672 30.0667-23.328ZM47.4427-23.328C47.4427-21.408 48.1307-19.76 49.5067-18.384 50.8827-17.008 52.5627-16.32 54.5467-16.32 56.5307-16.32 58.2107-17.008 59.5867-18.384 60.9627-19.76 61.6507-21.408 61.6507-23.328 61.6507-25.312 60.9627-26.992 59.5867-28.368 58.2107-29.744 56.5307-30.432 54.5467-30.432 52.5627-30.432 50.8827-29.744 49.5067-28.368 48.1307-26.992 47.4427-25.312 47.4427-23.328ZM112.053-47.232 112.053-28.416C110.773-29.184 109.589-29.568 108.501-29.568 107.093-29.568 105.989-28.928 105.189-27.648 104.389-26.368 103.989-24.544 103.989-22.176L103.989 0 86.4213 0 86.4213-25.536C86.4213-32.384 88.2293-37.808 91.8453-41.808 95.4613-45.808 100.341-47.808 106.485-47.808 108.277-47.808 110.133-47.616 112.053-47.232Z" transform="translate(205.676 125)"/></g></g><text font-family="STHupo,STHupo_MSFontService,sans-serif" font-weight="400" font-size="96" transform="translate(332.514 324)">t<tspan fill="#FFFFFF" font-size="96" x="42.3333" y="0">AI</tspan><tspan font-size="96" x="141.333" y="0">lor</tspan></text></g></svg>